<svg id="Layer_1" data-name="Layer 1" xmlns="http://www.w3.org/2000/svg" viewBox="0 0 242.07 242.07"><defs><style>.cls-1{fill:#ffabff;}</style></defs><path class="cls-1" d="M244.67,220.34a23.72,23.72,0,0,1-1.87,9.55,23.19,23.19,0,0,1-5.06,7.43,24,24,0,0,1-7.43,4.9,23.35,23.35,0,0,1-9.14,1.79,23.89,23.89,0,0,1-9.22-1.79,23.53,23.53,0,0,1-7.51-4.9,23,23,0,0,1-5.06-7.43,25.51,25.51,0,0,1-.82-16.89,25.59,25.59,0,0,1,2.86-6L157,162.56v63.17a22.47,22.47,0,0,1,13.47,7.67,22.82,22.82,0,0,1,5.3,15.34,23.73,23.73,0,0,1-6.94,17.06,23.51,23.51,0,0,1-33.13,0,22.92,22.92,0,0,1-5-7.51,24.58,24.58,0,0,1-1.79-9.55,22.77,22.77,0,0,1,5.3-15.34,22.44,22.44,0,0,1,13.47-7.67V162.56L103.16,207a28.39,28.39,0,0,1,2.93,6,22.17,22.17,0,0,1,1.15,7.34,23.73,23.73,0,0,1-1.88,9.55,22.47,22.47,0,0,1-5.14,7.43,24.7,24.7,0,0,1-7.59,4.9A24,24,0,0,1,83.4,244a23.35,23.35,0,0,1-9.14-1.79,23.8,23.8,0,0,1-7.42-4.9,22.07,22.07,0,0,1-5-7.43,24.58,24.58,0,0,1-1.8-9.55,24.16,24.16,0,0,1,1.8-9.38,22.17,22.17,0,0,1,5-7.43,22.56,22.56,0,0,1,7.42-4.81,25.39,25.39,0,0,1,22.2,1.87l44.89-44.39H77.85a23.44,23.44,0,0,1-2.93,7.59,24,24,0,0,1-5.14,6,23.67,23.67,0,0,1-6.94,4A23.14,23.14,0,0,1,33.13,161a26.16,26.16,0,0,1,0-19,21.88,21.88,0,0,1,5-7.5,23.84,23.84,0,0,1,7.43-4.9,23.11,23.11,0,0,1,9.14-1.8,22.86,22.86,0,0,1,15.1,5.39,23.14,23.14,0,0,1,8.07,13.71h63.5L96.46,102.33a23,23,0,0,1-6.12,2.77,25.19,25.19,0,0,1-16.08-.73,21.88,21.88,0,0,1-7.42-4.9,23.17,23.17,0,0,1-5-7.42,24,24,0,0,1-1.8-9.47,24.83,24.83,0,0,1,1.8-9.47,21.92,21.92,0,0,1,5-7.51,24,24,0,0,1,7.42-4.89,23.18,23.18,0,0,1,9.14-1.8,23.8,23.8,0,0,1,9.23,1.8,24.86,24.86,0,0,1,7.59,4.89,22.3,22.3,0,0,1,5.14,7.51,24,24,0,0,1,1.88,9.47,22.13,22.13,0,0,1-1.15,7.34,28.39,28.39,0,0,1-2.93,6l44.56,44.56V77.36a23.19,23.19,0,0,1-13.47-7.84A22.75,22.75,0,0,1,129,54.18a24.82,24.82,0,0,1,1.79-9.47,21.92,21.92,0,0,1,5-7.51,23.9,23.9,0,0,1,7.43-4.9,24.23,24.23,0,0,1,18.28,0,24,24,0,0,1,7.42,4.9,22.7,22.7,0,0,1,5.06,7.51,24,24,0,0,1,1.88,9.47,22.8,22.8,0,0,1-5.3,15.34A23.22,23.22,0,0,1,157,77.36v63.16L201.42,96a25.59,25.59,0,0,1-2.86-6,23.56,23.56,0,0,1-1.06-7.34,24,24,0,0,1,1.88-9.47,22.85,22.85,0,0,1,5.06-7.51,24,24,0,0,1,16.73-6.69,23.18,23.18,0,0,1,9.14,1.8,24.11,24.11,0,0,1,7.43,4.89,23,23,0,0,1,5.06,7.51,24,24,0,0,1,1.87,9.47,23.2,23.2,0,0,1-1.87,9.47,24.42,24.42,0,0,1-5.06,7.42,22,22,0,0,1-7.43,4.9,24.24,24.24,0,0,1-9.14,1.71,24.62,24.62,0,0,1-6.86-1,22.8,22.8,0,0,1-6.2-2.77l-44.72,44.56h63.49a20.92,20.92,0,0,1,2.78-7.59,24.36,24.36,0,0,1,5.22-6.12,22.77,22.77,0,0,1,6.94-4,23.66,23.66,0,0,1,8.08-1.39,23.18,23.18,0,0,1,9.14,1.8,23.8,23.8,0,0,1,7.42,4.9,22.66,22.66,0,0,1,5.06,7.5,24.17,24.17,0,0,1-5.06,26.53,23.1,23.1,0,0,1-16.56,6.77,22.35,22.35,0,0,1-8.08-1.47,25,25,0,0,1-6.94-4,23,23,0,0,1-5.22-6,20.92,20.92,0,0,1-2.78-7.59H163.39l44.72,44.39A24.59,24.59,0,0,1,221.17,197a24.05,24.05,0,0,1,9.14,1.72,22.71,22.71,0,0,1,7.43,4.81,23.29,23.29,0,0,1,6.93,16.81Z" transform="translate(-31.34 -30.51)"/></svg>